<?xml version="1.0" encoding="UTF-8" standalone="no"?>
<!-- Created with Inkscape (http://www.inkscape.org/) -->

<svg
   version="1.1"
   id="svg55"
   width="164"
   height="164"
   viewBox="0 0 164 164"
   xmlns="http://www.w3.org/2000/svg"
   xmlns:svg="http://www.w3.org/2000/svg">
  <defs
     id="defs59" />
  <rect
     style="fill:#ffffff"
     id="rect164"
     width="164"
     height="164"
     x="0"
     y="0"
     ry="0" />
  <g
     id="g61">
    <path
       style="fill:#000000;stroke-width:1.33333"
       d="m 16,134 v -14 h 14 14 v 14 14 H 30 16 Z m 24,0 V 124 H 30 20 v 10 10 h 10 10 z m -16,0 v -6 h 6 6 v 6 6 h -6 -6 z m 24,4 v -10 h 2 2 v -2 -2 h 2 2 v -2 -2 h 2 2 v 4 4 h -2 -2 v 2 2 h -2 -2 v 2 2 h 2 2 v 2 2 h -2 -2 v 2 2 h 2 2 v 2 2 h -4 -4 z m 12,8 v -2 h -2 -2 v -2 -2 h 2 2 v -2 -2 h -2 -2 v -2 -2 h 2 2 v 2 2 h 4 4 v 2 2 h -2 -2 v 4 4 h -2 -2 z m 24,0 v -2 h -2 -2 v -2 -2 h -2 -2 v 2 2 h -2 -2 v -2 -2 h 2 2 v -2 -2 h 4 4 v 4 4 h 1.999999 2 v -2 -2 h 4 4 v -2 -2 h -2 -2 v -2 -2 h 4 4 v 2 2 H 104 h 4 v -2 -2 h 2 2 v 4 4 h -4 -4 v 2 2 h 6 6 v 2 2 h -6 -6 v -2 -2 h -4.000001 -4 v 2 2 h -2 -2 v -2 -2 h -2 -2 v 2 2 h -2 H 84 Z m 36,0 v -2 h 2 2 v -2 -2 h -2 -2 v -2 -2 h -2 -2 v -2 -2 h -2 -2 v -2 -2 h -2 -2 v 2 2 h -2 -2 v -2 -2 h -2 -2.000001 v -2 -2 H 102 h 2 v 2 2 h 2 2 v -4 -4 h 2 2 v -2 -2 h -4 -4 v 2 2 h -2 -2.000001 v -2 -2 H 102 h 2 v -2 -2 h -4.000001 -4 v 4 4 h -2 -2 v 2 2 h 2 2 v 2 2 h -2 -2 v -2 -2 h -4 H 84 v 2 2 h 1.999999 2 v 2 2 h -2 H 84 v -2 -2 h -2 -2 v -2 -2 h -4 -4 v 2 2 h 2 2 v 2 2 h -2 -2 v -2 -2 h -2 -2 v 2 2 h -2 -2 v -4 -4 h 2 2 v -2 -2 h -2 -2 v -2 -2 h -2 -2 v -4 -4 h -2 -2 v -2 -2 h 6 6 v 2 2 h -2 -2 v 4 4 h 6 6 v 2 2 h 2 2 v -2 -2 h 2 2 v -2 -2 h -6 -6 v -2 -2 h 2 2 v -2 -2 h 2 2 v -2 -2.000001 h 2 2 V 106 v 6 h 1.999999 2 v 2 2 h -2 H 84 v 2 2 h 3.999999 4 v -6 -6 h 2 2 v -2 -2 h -4 -4 v -2 -2.000001 h -2 H 84 v -1.999997 -2 h 1.999999 2 v -2 -2 h -2 H 84 v -2 -2 h 1.999999 2 v -2 -2 h -2 H 84 v -2 -2 h -2 -2 v -2 -2 h 2 2 v 2 2 h 1.999999 2 v 2 2 h 8 H 104 v -2 -2 h -2 -2.000001 v -2 -2 h -2 -2 v -2 -2 h -2 -2 v 2 2 h -2 -2 v -2 -2 H 82 76 v -2 -2 h -2 -2 v -2 -2 h 2 2 v -2 -2 h -2 -2 v 2 2 h -2 -2 v 2 2 h -2 -2 v -4 -4 h 2 2 v -2 -2 h -2 -2 v -2 -2 h -2 -2 v -2 -2 h -2 -2 v 2 2 h -8 -8 v -2 -2 h 6 6 v -2 -2 h 2 2 v -2 -2 h 2 2 v 2 2 h 2 2 v 4 4 h 8 8 v 2 2 h 2 2 v -2 -2 h -2 -2 v -6 -6 h 2 2 v 4 4 h 1.999999 2 v 2 2 h 2 2 v -4 -4 h -2 -2 v -6 -6 h -2 H 84 v 2 2 h -4 -4 v -2 -2 h -2 -2 v -2 -2 h 2 2 v -2 -2 h -2 -2 v 2 2 h -2 -2 v 2 2 h -2 -2 v -4 -4 h 2 2 v -2 -2 h -2 -2 v -2 -2 h 8 8 v 2 2 h 2 2 v -2 -2 h 3.999999 4 v 2 2 h -4 H 84 v 2 2 h -2 -2 v 4 4 h 2 2 v -2 -2 h 1.999999 2 v 2 2 h 2 2 v -4 -4 h 2 2 v -4 -4 h 2 2 v 4 4 H 102 h 2 v -2 -2 h 2 2 v -2 -2 h 4 4 v 2 2 h -4 -4 v 6 6 h 2 2 v -4 -4 h 2 2 v 4 4 h -2 -2 v 2 2 h 2 2 v 6 6 h 2 2 v 2 2 h 2 2 v -2 -2 h 2 2 v 2 2 h -2 -2 v 2 2 h 6 6 v 2 2 h -2 -2 v 2 2 h 2 2 v -2 -2 h 2 2 v -2 -2 h -2 -2 v -2 -2 h -2 -2 v -2 -2 h 2 2 v 2 2 h 2 2 v -2 -2 h 2 2 v 2 2 h 2 2 v 2 2 h -2 -2 v 2 2 h -2 -2 v 2 2 h -2 -2 v 2 2 h -4 -4 v 2 2 h 2 2 v 2 2 h -2 -2 v 2 2 h 2 2 v 2 2 h 2 2 v 4 4 h 2 2 v -6 -6 h -2 -2 v -2 -2 h 2 2 v -4 -4 h 4 4 v 2 2 h -2 -2 v 2 2 h -2 -2 v 2 2 h 2 2 v 2 2 h 2 2 v 2 2 h -2 -2 v 2 2 h -2 -2 v 2 2 h 2 2 v 2 1.999997 h 2 2 V 102 v 2 h -2 -2 v 2 2 h -2 -2 v 2 2 h -4 -4 v 2 2 h 4 4 v 2 2 h -2 -2 v 2 2 h 2 2 v -2 -2 h 2 2 v -4 -4 h 2 2 v 4 4 h -2 -2 v 2 2 h 2 2 v 2 2 h -2 -2 v 2 2 h 2 2 v 2 2 h -4 -4 v 4 4 h 2 2 v 2 2 h -2 -2 v -2 -2 h -2 -2 v 2 2 h -2 -2 v -6 -6 h 4 4 v -4 -4 h -4 -4 v 4 4 h -4 -4 v -2 -2 h -2 -2 v 2 2 h 2 2 v 2 2 h 2 2 v 2 2 h -2 -2 v 2 2 h -2 -2 z m 8,-24 v -6 h -6 -6 v 6 6 h 6 6 z m -8,0 v -2 h 2 2 v 2 2 h -2 -2 z m -36,0 v -2 h -2 -2 v 2 2 h 2 2 z m 28,-12 v -2 h 2 2 v -2 -2 h 2 2 v -2 -2.000001 h 2 2 V 102 v 2 h 2 2 v 2 2 h 2 2 v -4 -4.000001 h -2 -2 v -1.999997 -2 h 2 2 v 2 1.999997 h 2 2 V 104 v 4 h 2 2 v -6 -5.999998 h -2 -2 v -2 -2 h -2 -2 v -4 -4 h -4 -4 v -2 -2 h -2 -2 v 2 2 h -4 -4 v -2 -2 h 2 2 v -4 -4 h 2 2 v -2 -2 h 2 2 v -2 -2 h 2 2 v -2 -2 h -2 -2 v -2 -2 h -2 -2 v -2 -2 h -2 -2 v -2 -2 h -4 -4 v -2 -2 h 2 2 v -4 -4 h -2 -2 v -2 -2 h -2 -2 v -2 -2 h -4.000001 -4 v 4 4 h -2 -2 v 4 4 h 2 2 v -2 -2 h 2 2 v 2 2 H 102 h 2 v 2 2 h -4.000001 -4 v 2 2 h 4 H 104 v 2 2 h 2 2 v -2 -2 h -2 -2 v -2 -2 h 2 2 v 2 2 h 2 2 v 2 2 h -2 -2 v 6 6 h 2 2 v -2 -2 h 2 2 v -2 -2 h 4 4 v 2 2 h -2 -2 v 2 2 h -4 -4 v 2 2 h -2 -2 v -2 -2 h -2 -2 v -2 -2 h -2 -2.000001 v -2 -2 h -2 -2 v -2 -2 h -4 -4 v 2 2 H 84 80 v 4 4 h 2 2 v -2 -2 h 1.999999 2 v 2 2 h 2 2 v -2 -2 h -2 -2 v -2 -2 h 2 2 v 2 2 h 2 2 v 2 2 h 4 H 104 v 4 4 h 4 4 v 2 2 h -2 -2 v 2 2 h 2 2 v 2 2 h -4 -4 v 4 4 h -4.000001 -4 v -4 -4 h -4 -4 v 2 2 h 2 2 v 2 2 h -2 -2 v 2 1.999997 h 2 2 v -1.999997 -2 h 2 2 v 2 1.999997 h 2 2 V 104 108 H 102 h 2 v -2 -2 h 2 2 v -2 -2.000001 h 2 2 V 102 v 2 h -2 -2 v 4 4 h 2 2 z m -4,-15.999999 v -2 h 4 4 v -2 -2 h 2 2 v -2 -2 h 2 2 v 4 4 h -2 -2 v 2 2 h -6 -6 z m -4,-52 v -2 h -2 -2.000001 v -2 -2 H 104 h 4 v 4 4 h -2 -2 z M 48,118 v -6 h 2 2 v -2 -2 h 2 2 v 4 4 h -2 -2 v 4 4 H 50 48 Z M 16,108 v -8.000002 h 4 4 V 102 v 2 h -2 -2 v 6 6 h -2 -2 z m 8,2 v -6 h 2 2 v -2 -2.000002 h -2 -2 v -1.999997 -2 h -4 -4 v -2 -2 h 4 4 v -2 -2 h -4 -4 v -4 -4 h 2 2 v 2 2 h 2 2 v -2 -2 h 2 2 v 2 2 h 4 4 v -2 -2 h -2 -2 v -2 -2 h -2 -2 v -2 -2 h -2 -2 v 4 4 h -2 -2 v -2 -2 h -2 -2 v -2 -2 h 4 4 v -2 -2 h 2 2 v 2 2 h 2 2 v 2 2 h 2 2 v -8 -8 h -2 -2 v -2 -2 h -2 -2 v -2 -2 h -2 -2 v 2 2 h -2 -2 v -2 -2 h -2 -2 v -2 -2 h 10 10 v 2 2 h 2 2 v 2 2 h 4 4 v 4 4 h 6 6 v 2 2 h -6 -6 v 4 4 h -4 -4 v 2 2 h 4 4 v 2 2 h -4 -4 v 2 2 h 2 2 v 2 2 h 2 2 v 2 2 h 4 4 v -2 -2 h -2 -2 v -6 -6 h -2 -2 v -2 -2 h 2 2 v -2 -2 h 8 8 v 2 2 h -2 -2 v 4 4 h 8 8 v 4 4 h 2 2 v 2 2 h -2 -2 v 2 1.999997 h -4 -4 v -1.999997 -2 h 2 2 v -2 -2 h -2 -2 v 2 2 h -2 -2 v 2 1.999997 h -2 -2 v -3.999997 -4 h 2 2 v -2 -2 h -2 -2 v -2 -2 h -2 -2 v -4 -4 h -2 -2 v 4 4 h 2 2 v 8 7.999997 H 58 56 V 102 v 2 h -4 -4 v 2 2 h -4 -4 v -2 -2 h 2 2 v -2 -2.000002 H 42 40 V 102 v 2 h -2 -2 v -4.000002 -3.999997 h 4 4 v -2 -2 h -4 -4 v -2 -2 h -2 -2 v 2 2 h 2 2 v 2 2 H 34 32 V 99.999998 104 h 2 2 v 4 4 h 4 4 v 2 2 h -4 -4 v -2 -2 h -2 -2 v -2 -2 h -2 -2 v 2 2 h 2 2 v 2 2 H 28 24 Z M 44,70.000001 v -2 h 2 2 v -2 -2 h -2 -2 v -2 -2 h -2 -2 v 2 2 h 2 2 v 2 2 h -2 -2 v 2 2 h 2 2 z m 28,8 v -2 h 2 2 v 2 2 h -2 -2 z m -56,-14 v -4 h 4 4 v -2 -2 h 2 2 v 2 2 h 2 2 v 2 2 h -6 -6 v 2 2 h -2 -2 z m 40,-8 v -4 h 2 2 v 4 4 h -2 -2 z m 16,-12 v -4 h 2 2 v 4 4 h -2 -2 z m -56,-14 v -14 h 14 14 v 14 14 H 30 16 Z m 24,0 v -10 H 30 20 v 10 10 h 10 10 z m -16,0 v -6 h 6 6 v 6 6 h -6 -6 z m 24,10 v -4 h 2 2 v -2 -2 h -2 -2 v -2 -2 h 6 6 v 2 2 h -2 -2 v 4 4 h -2 -2 v 2 2 h -2 -2 z m 16,2 v -2 h -2 -2 v -2 -2 h 4 4 v 4 4 h -2 -2 z m 56,-12 v -14 h 14 14 v 14 14 h -14 -14 z m 24,0 v -10 h -10 -10 v 10 10 h 10 10 z m -16,0 v -6 h 6 6 v 6 6 h -6 -6 z m -80,-8 v -2 h 2 2 v 2 2 h -2 -2 z m 8,-2 v -4 h 2 2 v 4 4 h -2 -2 z"
       id="path223" />
  </g>
</svg>
